<?xml version="1.0" standalone="no"?>
<!DOCTYPE svg PUBLIC "-//W3C//DTD SVG 20010904//EN"
 "http://www.w3.org/TR/2001/REC-SVG-20010904/DTD/svg10.dtd">
<svg version="1.0" xmlns="http://www.w3.org/2000/svg"
 width="216.000000pt" height="216.000000pt" viewBox="0 0 216.000000 216.000000"
 preserveAspectRatio="xMidYMid meet">
<metadata>
Created by potrace 1.14, written by Peter Selinger 2001-2017
</metadata>
<g transform="translate(0.000000,216.000000) scale(0.100000,-0.100000)"
fill="#000000" stroke="none">
<path d="M909 1737 c-12 -4 -41 -9 -66 -12 -25 -2 -48 -7 -51 -10 -3 -2 -11 0
-18 6 -8 6 -14 7 -18 0 -4 -6 -13 -8 -22 -4 -8 3 -26 -5 -39 -17 -14 -13 -28
-21 -31 -17 -4 3 -16 2 -27 -4 -15 -9 -18 -8 -11 3 6 10 4 10 -10 -1 -14 -12
-19 -12 -25 -2 -7 10 -9 9 -14 -2 -3 -8 0 -20 6 -27 9 -10 9 -11 0 -6 -8 4
-13 1 -13 -7 0 -8 -8 -21 -17 -28 -15 -12 -16 -12 -8 1 5 9 5 12 -1 7 -5 -5
-10 -17 -10 -28 -3 -37 -4 -40 -16 -33 -9 5 -9 2 1 -9 10 -13 10 -17 1 -17 -7
0 -10 -7 -6 -16 4 -12 2 -15 -9 -10 -8 3 -15 1 -15 -4 0 -6 5 -10 10 -10 6 0
10 -7 10 -15 0 -8 -6 -15 -12 -15 -8 0 -9 -3 -3 -8 6 -4 11 -13 13 -20 1 -9
-5 -8 -23 4 -23 15 -25 15 -19 0 3 -9 10 -16 16 -16 5 0 3 -7 -6 -15 -8 -8
-23 -15 -33 -15 -14 0 -15 -2 -4 -9 9 -6 10 -11 2 -15 -6 -4 -9 -12 -6 -17 4
-5 1 -9 -4 -9 -6 0 -11 -6 -11 -14 0 -7 -7 -19 -15 -26 -9 -7 -13 -15 -11 -18
3 -2 -4 -12 -16 -22 -16 -13 -18 -19 -8 -25 8 -5 11 -4 6 3 -3 6 -2 13 4 17
14 9 13 -18 -2 -33 -7 -7 -9 -12 -5 -12 4 0 3 -9 -3 -21 -11 -20 -12 -20 -38
-3 l-27 17 23 -26 c16 -16 20 -27 13 -32 -7 -3 -10 -2 -9 3 2 6 -1 10 -5 10
-5 1 -15 9 -23 19 -14 17 -14 16 -5 -4 14 -28 14 -36 -1 -27 -8 5 -9 2 -5 -10
5 -14 3 -17 -8 -12 -8 3 -15 1 -15 -4 0 -6 4 -10 9 -10 6 0 6 -12 2 -27 -8
-33 -7 -61 3 -86 5 -10 3 -23 -4 -32 -9 -10 -9 -15 -1 -15 6 0 11 -8 11 -17 0
-10 7 -27 15 -37 13 -17 12 -21 -3 -33 -9 -8 -11 -12 -4 -8 16 8 16 -7 0 -24
-11 -11 -10 -12 0 -6 10 5 11 3 4 -11 -5 -11 -19 -40 -32 -66 -12 -27 -26 -48
-30 -48 -4 0 -10 -11 -12 -25 -3 -14 -1 -25 3 -25 5 0 6 -6 4 -12 -9 -26 91
-108 131 -108 8 0 14 -5 14 -12 0 -6 3 -8 7 -5 3 4 13 1 21 -6 13 -10 14 -9 7
3 -7 12 -6 13 7 3 8 -7 18 -10 21 -6 4 3 7 1 7 -6 0 -7 4 -9 10 -6 5 3 20 -4
33 -17 13 -13 25 -23 27 -24 3 0 18 -9 33 -19 16 -10 47 -22 70 -26 23 -4 62
-13 87 -19 25 -7 68 -11 95 -10 28 2 64 3 82 4 17 1 29 5 26 10 -8 12 113 -1
139 -16 13 -7 26 -11 31 -10 4 1 7 -1 7 -6 0 -8 57 -8 66 1 4 3 15 2 24 -3 18
-10 32 -1 43 30 4 12 6 11 6 -2 1 -19 21 -26 21 -8 0 6 10 10 23 10 33 0 67
11 62 20 -3 4 3 14 12 21 14 12 16 12 9 -1 -4 -8 3 -2 15 14 13 16 34 39 45
52 12 12 19 25 16 28 -3 3 -1 6 4 6 5 0 11 11 12 25 3 35 44 74 81 77 20 1 31
9 35 21 3 14 10 18 23 13 16 -5 15 -4 -2 10 l-20 17 20 -8 c11 -4 27 -8 35
-10 8 -1 14 -8 13 -14 -2 -6 7 -11 18 -11 18 0 19 -2 9 -15 -11 -13 -10 -14 4
-9 9 3 16 1 16 -5 0 -19 3 -25 22 -45 20 -22 38 -15 20 7 -7 8 -9 17 -5 21 9
9 10 39 2 46 -12 10 -19 60 -9 60 5 0 10 7 10 15 0 15 8 18 45 17 11 0 24 5
30 12 5 6 9 9 8 7 -8 -14 21 -29 40 -22 33 13 35 12 63 -16 20 -20 23 -28 12
-35 -8 -6 -1 -8 22 -6 32 3 35 6 36 36 0 30 -6 42 -46 90 -6 6 -8 12 -5 12 11
0 -27 62 -57 93 -17 18 -28 26 -23 18 5 -9 4 -12 -2 -8 -6 4 -13 20 -16 37 -4
16 -12 30 -18 30 -8 0 -7 -5 2 -17 9 -11 10 -14 2 -9 -7 4 -18 16 -24 28 -8
14 -8 18 0 14 7 -5 9 -1 5 8 -3 9 -11 13 -16 10 -6 -4 -9 4 -7 17 2 13 -3 35
-11 49 -15 28 -39 118 -45 166 -2 20 -17 45 -39 67 -20 20 -36 41 -36 47 0 6
-7 18 -16 27 -8 9 -13 22 -10 30 3 8 1 11 -4 8 -6 -3 -10 -2 -10 4 0 5 9 13
21 16 26 9 64 45 47 45 -9 0 -8 4 2 10 12 8 12 10 1 10 -8 0 -12 3 -9 6 3 3
-10 20 -29 39 -22 22 -32 39 -27 47 4 7 4 10 0 6 -4 -3 -40 5 -79 19 -50 17
-94 25 -144 26 -40 0 -70 3 -68 6 2 4 -10 14 -26 24 -17 9 -28 13 -25 8 3 -5
-5 -8 -19 -7 -14 0 -25 3 -25 6 0 3 -9 6 -19 6 -11 0 -17 -4 -14 -9 3 -5 -4
-6 -17 -2 -12 4 -33 8 -46 10 -14 1 -35 12 -48 24 -20 19 -33 22 -85 19 -34
-2 -71 -6 -82 -11z"/>
<path d="M475 1470 c-3 -6 1 -7 9 -4 18 7 21 14 7 14 -6 0 -13 -4 -16 -10z"/>
<path d="M453 1415 c0 -8 4 -12 9 -9 5 3 6 10 3 15 -9 13 -12 11 -12 -6z"/>
<path d="M335 1260 c-3 -5 -1 -10 4 -10 6 0 11 5 11 10 0 6 -2 10 -4 10 -3 0
-8 -4 -11 -10z"/>
<path d="M347 1223 c5 -11 3 -14 -6 -8 -10 6 -11 3 -1 -15 13 -24 19 -23 25 8
2 11 -3 23 -10 26 -10 3 -12 0 -8 -11z"/>
<path d="M273 1165 c0 -8 4 -12 9 -9 5 3 6 10 3 15 -9 13 -12 11 -12 -6z"/>
</g>
</svg>
