<?xml version="1.0" standalone="no"?>
<!DOCTYPE svg PUBLIC "-//W3C//DTD SVG 20010904//EN"
 "http://www.w3.org/TR/2001/REC-SVG-20010904/DTD/svg10.dtd">
<svg version="1.0" xmlns="http://www.w3.org/2000/svg"
 width="512.000000pt" height="512.000000pt" viewBox="0 0 512.000000 512.000000"
 preserveAspectRatio="xMidYMid meet">
<metadata>
Created by potrace 1.14, written by Peter Selinger 2001-2017
</metadata>
<g transform="translate(0.000000,512.000000) scale(0.100000,-0.100000)"
fill="#000000" stroke="none">
<path d="M0 3816 c0 -1299 0 -1304 20 -1299 11 3 20 10 20 15 0 5 5 6 10 3 17
-10 11 -20 -20 -33 l-30 -14 0 -115 0 -116 45 5 c56 7 64 -4 29 -37 -15 -14
-24 -28 -21 -31 3 -4 21 8 38 26 l33 32 28 -33 c15 -19 30 -41 33 -50 3 -9 22
-25 43 -35 54 -27 61 -40 50 -88 -5 -23 -8 -68 -6 -102 3 -52 1 -60 -12 -57
-9 2 -22 -3 -29 -11 -11 -13 -9 -20 9 -43 21 -27 50 -40 50 -22 0 5 -4 9 -10
9 -5 0 -10 12 -10 28 l1 27 15 -30 c27 -55 40 -74 70 -101 16 -16 30 -40 32
-58 2 -16 11 -35 20 -42 16 -12 16 -13 0 -19 -13 -5 -18 -18 -18 -49 l0 -41
106 110 c113 117 127 138 139 200 3 21 18 53 32 69 21 26 24 37 21 78 -4 36
-1 51 10 57 8 4 18 26 23 47 4 21 11 51 15 66 6 27 5 28 -34 28 -44 0 -65 -17
-38 -32 19 -11 22 -30 3 -22 -8 3 -20 -2 -27 -10 -17 -21 -31 -10 -24 19 3 13
1 33 -6 44 -12 23 -1 28 18 9 9 -9 15 -9 24 0 7 7 20 12 29 12 12 0 18 11 21
37 4 37 -9 63 -31 63 -16 0 -13 11 6 25 25 18 0 47 -33 39 -18 -5 -24 -2 -24
10 0 24 -42 41 -68 27 -14 -7 -29 -8 -46 -2 -17 7 -26 7 -30 -2 -3 -7 -3 2 1
18 8 43 41 75 76 75 41 0 92 -27 124 -64 l26 -31 -5 56 c-6 74 -47 156 -109
220 -55 56 -90 74 -170 83 l-55 7 4 -38 c2 -23 0 -33 -5 -26 -10 14 -60 19
-85 8 -11 -4 -18 -3 -18 3 0 6 6 13 13 15 6 3 3 6 -9 6 -11 1 -29 -8 -39 -19
-16 -18 -14 -25 8 -21 17 3 5 -10 -18 -19 -16 -6 -23 -15 -19 -24 4 -10 -2
-16 -17 -18 -17 -2 -25 -13 -32 -38 -5 -19 -15 -42 -24 -52 -13 -14 -13 -17 2
-20 14 -3 14 -5 2 -22 -13 -18 -14 -18 -16 0 -7 54 -1 88 18 108 12 12 21 27
21 32 0 6 11 21 25 34 26 24 35 57 12 44 -8 -5 -9 -4 -2 3 12 11 83 35 117 38
12 1 27 3 32 4 4 0 5 8 2 17 -3 8 1 29 10 45 12 24 19 29 37 23 12 -4 25 -11
28 -16 3 -5 8 -9 10 -8 18 7 58 -16 63 -36 7 -27 26 -33 26 -8 0 10 6 14 15
11 8 -4 17 -1 21 4 3 6 17 8 30 5 13 -4 24 -3 25 1 1 5 3 30 5 56 4 50 34 121
41 100 4 -10 11 -9 34 2 16 9 29 19 29 24 0 14 44 21 52 8 6 -9 12 -8 22 5 7
10 16 15 19 11 4 -3 7 -1 7 6 0 8 6 11 16 7 8 -3 13 -2 10 3 -3 5 0 14 8 20
11 9 15 9 19 -1 4 -10 7 -10 15 1 5 7 15 10 21 7 6 -4 11 -1 11 7 0 16 36 15
68 -2 28 -15 32 -14 32 7 1 16 1 16 11 -1 6 -10 8 -21 5 -24 -13 -14 67 -44
110 -42 28 2 48 -2 53 -9 4 -7 15 -10 25 -6 10 4 21 2 26 -6 6 -9 12 -10 30 0
13 7 38 10 56 7 19 -3 36 -1 40 4 4 6 11 6 19 -1 8 -7 23 -9 34 -5 14 4 23 0
31 -14 8 -16 20 -20 49 -19 21 0 43 -2 50 -6 6 -4 19 -2 28 6 13 10 17 10 20
1 6 -16 27 -16 54 0 17 10 23 10 26 0 8 -21 47 -14 72 13 16 16 30 23 40 18 9
-4 77 -9 151 -11 74 -2 148 -7 163 -10 16 -3 38 -1 50 5 12 6 45 13 72 16 124
11 189 37 197 80 5 27 -6 36 -50 37 l-27 0 23 16 c32 22 28 43 -8 43 -18 0
-42 -11 -62 -29 l-33 -29 -33 29 c-26 23 -41 29 -80 29 -77 0 -182 -12 -182
-21 0 -5 31 -6 69 -3 43 4 71 2 75 -4 9 -15 1 -18 -102 -36 -138 -24 -134 -25
-113 29 10 25 27 52 39 61 12 8 22 21 22 28 0 22 49 36 144 42 71 5 99 2 129
-10 20 -9 37 -21 37 -26 0 -5 16 2 36 15 30 21 49 25 104 25 72 0 93 -11 80
-45 -3 -10 -3 -38 2 -61 6 -27 6 -56 -1 -80 -6 -20 -8 -41 -5 -45 8 -14 -16
-52 -52 -82 -19 -16 -32 -33 -29 -38 4 -5 3 -9 -2 -9 -4 0 -16 -12 -26 -25
-16 -22 -16 -28 -3 -60 8 -19 19 -35 24 -35 5 0 8 -21 6 -47 -3 -57 -35 -88
-98 -99 -30 -5 -53 -20 -94 -60 -30 -29 -63 -56 -73 -59 -18 -6 -18 -9 -5 -33
29 -52 48 -102 51 -130 4 -39 23 -84 34 -78 14 9 32 -20 37 -60 4 -35 35 -74
42 -53 7 19 32 8 47 -21 14 -27 55 -43 55 -22 0 4 4 13 9 21 17 26 48 -7 77
-79 33 -86 43 -95 33 -32 -20 121 -7 137 57 73 27 -26 44 -57 57 -97 19 -66
33 -92 42 -82 8 7 -6 56 -37 135 -24 59 -19 90 11 73 26 -14 31 -13 25 5 -4 9
-1 15 7 15 7 0 21 7 31 16 14 13 21 14 32 5 12 -10 21 -5 47 23 18 20 37 36
44 36 6 0 26 -11 45 -25 37 -27 50 -31 50 -14 0 10 59 69 70 69 13 0 32 71 22
83 -6 7 -7 30 -3 52 6 39 8 40 49 43 23 2 42 -1 42 -6 0 -5 -13 -41 -29 -80
-16 -39 -26 -73 -23 -77 15 -14 73 -34 87 -29 10 4 15 -5 18 -33 l4 -38 1 42
c2 38 22 74 22 39 0 -9 5 -16 10 -16 6 0 10 7 10 16 0 8 5 12 10 9 6 -3 11
-32 11 -63 l2 -57 7 59 c4 33 14 64 21 70 19 15 21 49 3 42 -8 -3 -14 -3 -14
0 0 16 44 82 62 93 19 12 20 11 15 -8 -3 -12 -1 -21 4 -21 5 0 9 5 9 11 0 5 4
8 9 4 6 -3 10 3 11 12 3 57 1 77 -12 84 -9 6 -7 9 10 9 22 0 31 23 12 35 -7 4
-6 13 1 27 10 18 13 19 23 7 6 -8 17 -15 24 -17 23 -5 2 64 -49 160 -13 26
-11 32 6 18 18 -15 19 -11 2 28 l-13 31 -50 -87 c-28 -48 -66 -116 -84 -152
-18 -36 -37 -71 -42 -78 -14 -16 -42 -16 -35 1 3 7 -1 24 -9 38 -19 34 -18 37
16 54 17 9 30 21 30 27 0 6 7 20 17 30 15 17 14 18 -18 18 l-34 0 30 16 c16 8
37 22 46 30 15 13 17 13 22 -1 10 -25 25 -17 32 16 8 35 -2 52 -16 26 -7 -12
-23 -17 -59 -17 -28 0 -50 5 -50 10 0 6 6 10 13 8 6 -1 24 9 39 23 27 25 27
26 8 45 -19 19 -50 142 -50 200 0 17 7 37 15 44 17 14 20 50 4 50 -6 0 -22 9
-36 20 -14 11 -38 20 -54 20 -36 0 -79 16 -79 30 0 6 12 27 28 46 32 41 34 51
10 85 -15 23 -16 33 -6 77 13 54 22 59 103 66 17 2 46 6 65 10 45 9 126 -20
151 -54 11 -15 22 -51 25 -87 4 -35 11 -63 15 -63 15 0 33 83 33 150 -1 47 -7
79 -24 115 -13 28 -23 56 -21 63 1 7 -12 15 -29 18 -35 7 -51 24 -22 24 29 0
31 8 14 43 -15 29 -17 30 -20 10 -4 -30 -22 -42 -55 -36 -19 4 -26 10 -23 20
3 8 2 12 -2 9 -4 -2 -16 2 -27 10 -13 10 -15 14 -4 14 10 0 7 6 -7 18 -27 22
-38 66 -20 81 7 6 16 8 19 4 4 -3 7 -2 7 4 0 16 -108 69 -168 83 -66 15 -145
6 -232 -27 -36 -13 -82 -29 -102 -35 -21 -6 -53 -26 -73 -45 -19 -18 -35 -31
-35 -28 0 15 54 75 67 75 11 0 14 7 10 21 -4 13 2 28 16 42 14 14 17 22 8 25
-8 3 -5 9 9 19 13 9 18 19 12 26 -4 7 -10 43 -11 82 -1 38 -7 75 -13 82 -5 7
-7 21 -3 32 3 10 1 22 -5 26 -5 3 -10 14 -10 24 0 43 -100 91 -191 91 -19 0
-41 6 -48 13 -11 10 -15 9 -19 -3 -3 -8 -26 -36 -52 -62 -33 -34 -55 -48 -74
-48 -15 0 -25 -4 -21 -9 3 -5 -8 -16 -25 -24 -34 -17 -37 -12 -14 21 15 21 14
22 -15 22 -38 0 -38 6 -4 43 28 30 15 28 -20 -2 -16 -13 -19 -13 -27 -1 -6 8
-10 23 -10 33 0 9 -7 17 -15 17 -28 0 -75 30 -75 48 0 22 19 42 38 42 9 0 13
-7 9 -20 -6 -23 -3 -24 24 -10 14 8 17 15 11 27 -5 9 -7 24 -4 35 3 14 7 16
18 7 8 -6 14 -8 14 -3 0 5 -14 17 -30 26 -33 19 -39 48 -14 68 36 30 36 47 -1
70 -23 14 -42 19 -56 15 -12 -4 -24 -2 -28 3 -5 8 -19 7 -46 -3 -22 -8 -50
-14 -63 -15 -22 0 -22 0 -5 -27 30 -47 48 -54 58 -23 8 26 24 25 57 -5 22 -19
27 -30 22 -53 -7 -32 -43 -56 -70 -45 -14 5 -15 3 -5 -15 10 -18 9 -22 -4 -22
-11 0 -15 10 -15 35 0 33 -12 46 -25 26 -9 -16 27 -89 42 -84 7 3 13 -2 13
-10 0 -9 7 -20 17 -25 11 -7 14 -15 8 -28 -5 -11 -8 -22 -7 -26 1 -4 -13 -11
-31 -16 -194 -58 -195 -59 -216 -123 -6 -20 -27 -54 -45 -75 -18 -22 -37 -54
-40 -72 -4 -17 -11 -32 -15 -32 -4 0 -13 -11 -19 -25 -11 -24 -15 -25 -104
-25 -116 0 -138 6 -138 34 0 12 4 26 9 32 5 5 11 22 13 38 3 30 17 38 65 38
22 0 71 43 60 54 -3 3 -25 -6 -50 -20 -24 -14 -48 -26 -53 -26 -18 0 -69 51
-58 58 6 4 13 15 17 25 3 9 15 17 26 17 23 0 130 102 112 108 -6 2 -18 10 -26
18 -13 13 -19 11 -47 -22 -18 -20 -36 -41 -39 -47 -10 -14 -31 2 -25 19 3 8 1
14 -4 14 -6 0 -10 -3 -10 -7 0 -5 -7 -16 -14 -26 -15 -19 -66 -31 -66 -16 0 5
7 9 15 9 8 0 15 9 15 20 0 30 76 102 101 95 21 -7 27 10 7 18 -10 3 -10 9 0
27 18 30 7 37 -12 7 -18 -27 -56 -47 -90 -47 -23 0 -74 -45 -63 -56 4 -4 -3
-19 -13 -35 l-20 -28 22 -3 c13 -2 24 -11 26 -20 3 -13 -1 -16 -14 -11 -19 7
-44 -20 -44 -48 0 -12 6 -16 20 -12 11 3 20 9 20 14 0 13 14 11 36 -6 18 -14
18 -14 -4 -8 -12 3 -29 0 -37 -7 -8 -7 -21 -10 -29 -7 -7 3 -19 0 -25 -6 -17
-17 -13 -27 7 -20 14 5 15 4 4 -8 -10 -11 -16 -11 -32 -1 -17 10 -18 9 -13 -6
3 -9 14 -28 23 -42 11 -16 16 -37 13 -56 -5 -31 -6 -32 -46 -26 -23 3 -44 9
-45 14 -2 5 -10 4 -18 -3 -10 -8 -14 -8 -14 0 0 16 32 51 42 45 4 -3 8 2 8 10
0 9 -5 16 -11 16 -6 0 -9 7 -5 15 3 8 1 15 -4 15 -6 0 -10 15 -11 33 0 17 -3
26 -6 20 -7 -18 -23 -16 -23 2 0 8 5 15 11 15 7 0 9 10 5 26 -6 21 -4 25 8 21
10 -4 13 -1 9 9 -3 8 1 14 8 14 11 0 11 3 -1 10 -13 8 -13 10 2 10 18 0 43 52
47 100 1 13 2 13 11 0 13 -21 88 -16 114 9 12 11 39 37 62 58 47 43 79 99 64
108 -6 3 -15 3 -21 -1 -8 -4 -8 0 0 15 7 11 19 21 27 21 9 0 12 -5 8 -12 -4
-7 -3 -8 4 -4 6 4 9 13 5 21 -3 9 1 15 10 15 9 0 20 6 24 13 4 8 17 17 27 20
10 4 16 10 12 14 -9 9 -89 -19 -103 -37 -11 -13 -13 -12 -19 8 -6 21 -24 31
-24 13 0 -5 -7 -11 -14 -14 -10 -4 -13 -1 -9 8 8 23 -26 29 -64 11 -19 -9 -39
-14 -44 -11 -5 4 -9 2 -9 -3 0 -5 -24 -21 -52 -36 l-53 -27 33 29 c19 16 61
44 95 62 75 39 106 60 89 60 -7 0 -10 5 -7 10 5 8 11 7 21 -1 11 -9 14 -7 14
10 0 11 6 21 13 21 8 0 7 3 -3 10 -12 7 -12 12 -2 22 6 6 12 24 12 39 0 41 10
59 34 60 16 1 17 2 4 6 -34 9 -19 30 20 28 23 -1 42 5 49 14 11 14 12 14 13
-1 0 -15 4 -16 25 -6 14 6 25 17 25 25 0 17 20 17 20 1 0 -8 7 -5 15 6 12 16
12 22 2 28 -8 5 -8 8 -1 8 6 0 17 -7 24 -15 16 -19 31 -20 24 -1 -3 8 0 17 5
21 6 3 9 11 6 16 -4 5 3 9 15 9 16 0 20 -4 15 -19 -5 -16 -2 -18 15 -14 11 3
20 11 20 18 0 7 11 13 25 13 14 0 25 -5 25 -11 0 -7 4 -7 12 1 7 7 25 12 41
12 17 0 26 4 22 10 -4 7 2 9 19 4 21 -5 26 -3 25 12 0 11 -3 14 -6 7 -7 -18
-20 -16 -27 4 -4 10 -4 14 0 10 4 -4 16 0 26 10 16 14 18 14 18 1 0 -31 25
-39 49 -16 19 17 25 18 32 7 8 -12 11 -12 22 1 6 9 20 14 30 12 9 -2 17 1 17
7 0 6 5 11 11 11 6 0 9 -7 5 -15 -4 -11 1 -15 19 -15 13 0 27 5 30 10 4 6 16
8 27 5 12 -4 27 0 39 11 10 9 22 14 26 11 3 -4 1 -7 -5 -7 -7 0 -12 -4 -12 -9
0 -5 12 -8 28 -7 19 2 28 10 30 25 4 26 22 18 22 -10 0 -17 3 -18 21 -9 11 7
31 9 43 6 16 -4 32 3 54 23 18 15 32 33 32 39 0 7 5 12 11 12 6 0 8 -7 5 -16
-3 -9 -6 -20 -6 -25 0 -5 -7 -9 -15 -9 -8 0 -15 -4 -15 -10 0 -13 17 -13 25 0
4 6 11 8 16 5 5 -4 9 1 9 9 0 9 4 16 10 16 5 0 7 -6 4 -13 -4 -11 7 -13 48
-10 78 5 77 4 104 30 29 27 34 28 34 8 0 -8 7 -15 15 -15 8 0 14 5 13 11 -2 6
3 14 10 16 6 3 12 -3 12 -12 0 -15 6 -17 40 -11 29 4 42 3 46 -7 6 -17 44 -19
44 -2 0 7 7 16 16 19 25 10 36 7 27 -6 -11 -19 -13 -38 -2 -38 4 0 13 9 19 21
11 19 13 19 29 5 19 -18 101 -22 101 -6 0 6 9 10 20 10 11 0 20 -4 20 -9 0
-11 19 -9 38 3 7 4 19 3 26 -3 7 -6 16 -8 20 -4 4 4 25 8 47 9 31 2 39 -1 35
-12 -3 -8 -1 -14 5 -14 5 0 12 7 16 16 4 12 8 13 14 3 5 -9 33 -13 88 -12 60
0 81 -3 81 -12 0 -9 16 -13 50 -13 28 -1 55 -4 62 -8 6 -4 8 -3 4 4 -8 14 31
10 61 -6 12 -7 29 -9 37 -6 9 4 22 2 29 -3 14 -11 64 -10 90 2 14 6 20 2 24
-14 4 -17 12 -20 39 -18 19 1 34 5 34 10 0 4 5 7 10 7 6 0 10 -8 10 -18 0 -17
5 -18 107 -23 14 -1 20 -6 16 -15 -3 -8 -1 -14 5 -14 6 0 19 -3 29 -6 10 -3
14 -2 8 3 -5 4 -11 16 -11 25 -1 14 4 16 21 12 13 -3 26 -1 29 5 4 6 12 11 18
11 6 0 8 -3 5 -7 -4 -3 -2 -13 5 -20 9 -11 9 -16 -3 -23 -28 -18 8 -32 85 -35
59 -2 76 1 76 11 0 19 15 18 34 -2 15 -14 16 -14 16 5 0 25 37 29 47 5 4 -11
13 -14 29 -10 33 9 30 1 -11 -27 -31 -21 -34 -26 -20 -37 13 -11 14 -10 8 6
-7 18 -6 18 19 2 25 -17 26 -16 32 5 5 23 46 55 46 37 0 -5 -4 -10 -10 -10 -5
0 -10 -12 -10 -26 0 -14 4 -23 10 -19 6 4 8 11 5 16 -3 5 1 6 9 3 21 -8 20
-20 -1 -34 -15 -9 -14 -10 7 -4 14 3 30 11 37 16 8 7 16 3 25 -11 9 -15 15
-17 25 -9 8 6 13 7 13 1 0 -6 39 -10 93 -10 296 -1 367 -6 373 -25 16 -53 24
-2 24 167 l0 185 -2560 0 -2560 0 0 -1304z m2160 1230 c0 -2 -7 -7 -16 -10 -8
-3 -12 -2 -9 4 6 10 25 14 25 6z m2270 -66 c0 -5 -4 -10 -10 -10 -5 0 -10 5
-10 10 0 6 5 10 10 10 6 0 10 -4 10 -10z m130 -30 c0 -5 -5 -10 -11 -10 -5 0
-7 5 -4 10 3 6 8 10 11 10 2 0 4 -4 4 -10z m-191 -11 c-18 -11 -39 -11 -39 0
0 5 12 9 26 9 18 0 22 -3 13 -9z m-125 -18 c3 -5 -1 -14 -8 -20 -16 -13 -32 2
-21 19 8 12 22 13 29 1z m411 -61 c-3 -5 -13 -10 -21 -10 -8 0 -14 5 -14 10 0
6 9 10 21 10 11 0 17 -4 14 -10z m-10 -30 c3 -5 1 -10 -4 -10 -6 0 -11 5 -11
10 0 6 2 10 4 10 3 0 8 -4 11 -10z m65 -10 c0 -5 -7 -7 -15 -4 -8 4 -15 8 -15
10 0 2 7 4 15 4 8 0 15 -4 15 -10z m-2592 -418 c2 -7 -3 -12 -10 -12 -8 0 -15
7 -15 15 0 18 19 15 25 -3z m-732 -129 c-11 -11 -17 4 -9 23 7 18 8 18 11 1 2
-10 1 -21 -2 -24z m751 -51 l21 -28 -34 -10 -34 -11 0 38 c0 47 17 51 47 11z
m-719 -84 c-3 -7 -11 -13 -18 -13 -7 0 -15 6 -17 13 -3 7 4 12 17 12 13 0 20
-5 18 -12z m-58 -117 c-12 -23 -40 -29 -40 -8 0 17 12 33 30 39 20 7 24 -6 10
-31z m-200 7 c0 -24 -34 -88 -47 -88 -7 0 -13 5 -13 10 0 6 4 10 8 10 15 0 42
58 35 76 -4 12 -3 15 5 10 7 -4 12 -12 12 -18z m194 -80 c5 -22 3 -28 -9 -28
-9 0 -14 4 -10 9 3 5 -4 12 -15 16 -27 8 -25 23 3 27 12 2 22 4 23 3 1 0 4
-12 8 -27z m376 -79 c0 -6 -4 -7 -10 -4 -5 3 -10 11 -10 16 0 6 5 7 10 4 6 -3
10 -11 10 -16z m1426 -141 c-9 -5 -16 -16 -16 -24 0 -8 -4 -13 -9 -9 -6 3 -6
17 1 36 8 24 13 28 25 18 12 -11 12 -14 -1 -21z m-1240 -70 c16 -57 17 -57 61
-64 28 -4 49 -2 56 5 16 16 77 14 83 -4 4 -8 10 -13 14 -10 5 3 12 0 16 -6 4
-8 3 -9 -4 -5 -8 5 -10 -2 -6 -23 14 -67 -14 -151 -51 -151 -10 0 -10 7 1 38
15 43 18 88 5 96 -5 3 -12 -10 -15 -29 -4 -20 -18 -43 -34 -56 -24 -19 -35
-21 -102 -15 -50 4 -70 3 -60 -4 8 -5 23 -10 33 -10 9 0 17 -4 17 -9 0 -18
-12 -41 -22 -41 -5 0 -21 -9 -34 -19 -22 -18 -39 -19 -83 -5 -9 3 -1 17 27 44
22 22 36 42 31 46 -14 8 -11 34 4 34 19 0 53 27 45 35 -4 4 -25 0 -48 -9 -46
-18 -77 -7 -85 29 -13 69 -14 85 -2 85 6 0 37 29 67 65 60 72 61 72 86 -17z
m-906 -3 c0 -14 -4 -25 -10 -25 -11 0 -14 33 -3 43 11 11 13 8 13 -18z m1560
-15 c-6 -12 -14 -19 -17 -17 -2 3 1 15 7 27 6 12 14 19 17 17 2 -3 -1 -15 -7
-27z m745 -40 c-3 -5 -10 -10 -16 -10 -5 0 -9 5 -9 10 0 6 7 10 16 10 8 0 12
-4 9 -10z m-786 -9 c14 -9 8 -42 -15 -75 -12 -18 -14 -17 -46 15 -18 19 -30
30 -25 25 12 -16 8 -36 -7 -36 -8 0 -16 -5 -18 -10 -2 -6 -19 5 -38 25 l-34
35 40 1 c21 0 57 6 79 14 51 17 48 16 64 6z m-285 -12 c1 -2 10 -17 20 -32
l17 -28 -27 17 c-15 10 -33 19 -41 20 -27 4 -43 13 -43 25 0 9 67 8 74 -2z
m96 -24 c9 -11 9 -18 -3 -29 -13 -13 -18 -12 -40 13 l-25 28 29 1 c15 0 33 -6
39 -13z m-1433 -27 c-3 -8 -6 -5 -6 6 -1 11 2 17 5 13 3 -3 4 -12 1 -19z
m2463 -34 c0 -2 -7 -4 -15 -4 -8 0 -15 4 -15 10 0 5 7 7 15 4 8 -4 15 -8 15
-10z m10 -18 c0 -3 -4 -8 -10 -11 -5 -3 -10 -1 -10 4 0 6 5 11 10 11 6 0 10
-2 10 -4z m-1583 -43 c-21 -22 -32 -11 -15 16 8 13 16 17 22 11 7 -7 4 -16 -7
-27z m-748 -63 c7 -44 18 -80 27 -87 14 -10 14 -13 -3 -22 -15 -8 -23 -5 -36
13 -13 17 -25 22 -42 18 -25 -4 -34 11 -14 23 7 5 5 15 -5 31 -21 31 -20 33
10 44 14 6 22 15 19 20 -4 6 -1 9 7 8 9 -2 12 5 10 22 -3 16 0 21 6 15 5 -5
14 -44 21 -85z m836 -166 c-22 -8 -46 -13 -55 -11 -8 2 1 9 20 14 52 17 81 14
35 -3z m1025 -59 c0 -6 -23 -35 -50 -64 l-51 -54 5 -66 c3 -36 8 -80 12 -98 6
-32 -11 -103 -26 -103 -12 0 -29 51 -35 109 -3 30 -10 70 -16 90 -6 20 -9 54
-7 76 2 33 8 42 33 54 17 8 36 23 44 33 21 31 91 48 91 23z m-580 -59 c0 -2
-8 -10 -17 -17 -16 -13 -17 -12 -4 4 13 16 21 21 21 13z m275 -144 c-6 -16 -7
-16 -16 0 -7 12 -6 24 3 38 l13 21 3 -21 c2 -12 1 -29 -3 -38z m439 -28 c14
-14 14 -18 0 -47 -30 -58 -53 -61 -77 -12 -21 44 -14 63 26 68 18 2 33 5 34 5
1 1 9 -5 17 -14z m-404 -14 c0 -5 -2 -10 -4 -10 -3 0 -8 5 -11 10 -3 6 -1 10
4 10 6 0 11 -4 11 -10z m-2474 -189 c-8 -12 -46 -21 -46 -11 0 9 18 18 38 19
7 1 11 -3 8 -8z m314 -21 c-20 -13 -33 -13 -25 0 3 6 14 10 23 10 15 0 15 -2
2 -10z m55 -20 c-3 -5 -18 -10 -33 -10 -21 0 -24 2 -12 10 20 13 53 13 45 0z
m53 -53 c4 -33 -1 -34 -32 -3 -20 21 -22 26 -8 29 28 7 37 2 40 -26z m-533
-57 c-3 -5 -10 -10 -16 -10 -5 0 -9 5 -9 10 0 6 7 10 16 10 8 0 12 -4 9 -10z
m63 -100 c-7 -11 -17 -20 -22 -20 -5 0 -1 9 9 20 10 11 20 20 22 20 2 0 -2 -9
-9 -20z m402 -145 c0 -11 -52 -25 -63 -18 -7 5 0 10 18 14 43 9 45 10 45 4z
m2710 -9 c0 -3 -4 -8 -10 -11 -5 -3 -10 -1 -10 4 0 6 5 11 10 11 6 0 10 -2 10
-4z m-2758 -182 c17 -4 34 -1 44 7 14 12 16 11 13 -6 -6 -27 -49 -48 -63 -30
-6 7 -24 20 -41 30 -27 14 -27 16 -5 10 14 -3 37 -8 52 -11z m228 -37 c0 -18
-2 -19 -10 -7 -13 20 -13 43 0 35 6 -3 10 -16 10 -28z m-382 -22 c-3 -3 -9 2
-12 12 -6 14 -5 15 5 6 7 -7 10 -15 7 -18z m60 -60 c-3 -3 -9 2 -12 12 -6 14
-5 15 5 6 7 -7 10 -15 7 -18z"/>
<path d="M1784 3595 c-16 -12 -16 -14 -3 -15 9 0 22 7 29 15 16 19 0 19 -26 0z"/>
<path d="M1807 3549 l-28 -28 30 9 c41 11 51 19 51 36 0 21 -22 15 -53 -17z"/>
<path d="M4127 4943 c-10 -9 -9 -23 2 -23 5 0 11 7 15 15 5 15 -5 20 -17 8z"/>
<path d="M2045 4904 c-43 -24 -82 -62 -95 -95 -15 -34 -6 -79 16 -79 8 0 29
-8 47 -17 40 -21 52 -19 96 18 46 38 63 37 101 -8 l32 -38 -6 43 c-5 32 -3 44
8 48 8 3 17 13 20 21 5 13 0 15 -29 10 -38 -6 -42 -2 -21 22 7 9 17 26 20 37
6 18 1 24 -26 33 -59 21 -130 23 -163 5z"/>
<path d="M2515 4801 c-7 -7 6 -21 20 -21 7 0 15 6 18 13 4 12 -28 19 -38 8z"/>
<path d="M2480 4790 c-8 -5 -11 -12 -7 -16 4 -4 13 -2 19 4 15 15 7 24 -12 12z"/>
<path d="M2340 4748 c0 -6 3 -8 6 -5 4 3 16 0 28 -8 30 -21 42 -18 21 5 -20
22 -55 27 -55 8z"/>
<path d="M5104 4708 c-10 -16 -6 -70 6 -82 7 -7 10 9 10 42 0 53 -3 61 -16 40z"/>
<path d="M2040 4658 l-25 -11 25 -7 c41 -13 50 -11 50 10 0 22 -12 24 -50 8z"/>
<path d="M2340 4650 c0 -5 5 -10 11 -10 5 0 7 5 4 10 -3 6 -8 10 -11 10 -2 0
-4 -4 -4 -10z"/>
<path d="M2256 4625 c-15 -11 -17 -18 -8 -27 8 -8 17 -7 37 6 14 9 23 21 20
26 -9 14 -27 12 -49 -5z"/>
<path d="M1808 4567 c-21 -11 -38 -28 -38 -37 0 -9 16 -22 38 -30 20 -8 41
-17 46 -19 5 -2 6 4 3 13 -4 9 -2 16 4 16 6 0 6 7 -1 19 -13 25 -13 27 6 45
14 15 14 16 -3 15 -10 0 -35 -10 -55 -22z"/>
<path d="M2307 4572 c8 -5 9 -13 3 -22 -17 -27 -10 -35 10 -11 22 25 18 41 -8
41 -12 0 -13 -3 -5 -8z"/>
<path d="M3925 4457 c-52 -13 -136 -97 -153 -154 -18 -59 -14 -179 6 -238 20
-58 87 -165 102 -165 6 0 8 5 4 12 -22 36 -40 198 -26 238 8 22 7 41 -6 79 -8
28 -13 54 -9 58 9 8 36 -27 37 -47 1 -27 16 -41 76 -65 49 -20 59 -28 60 -49
1 -14 -3 -23 -7 -20 -5 3 -9 -9 -9 -25 0 -37 20 -41 52 -11 20 18 20 20 4 45
-9 14 -14 25 -10 25 3 0 -1 11 -10 25 -16 24 -16 26 9 35 45 17 80 12 103 -15
19 -22 53 -32 86 -26 4 1 14 -4 22 -10 20 -16 19 20 -1 47 -22 29 -18 36 9 18
14 -8 28 -29 31 -45 4 -16 10 -31 15 -34 5 -3 4 9 -1 27 -6 18 -14 44 -18 58
-5 16 -18 27 -42 33 -36 9 -70 41 -119 111 -51 76 -130 111 -205 93z"/>
<path d="M1635 4450 c4 -6 11 -8 16 -5 14 9 11 15 -7 15 -8 0 -12 -5 -9 -10z"/>
<path d="M1590 4425 c-7 -9 -8 -15 -2 -15 5 0 12 7 16 15 3 8 4 15 2 15 -2 0
-9 -7 -16 -15z"/>
<path d="M2420 4332 c0 -12 19 -26 26 -19 2 2 -2 10 -11 17 -9 8 -15 8 -15 2z"/>
<path d="M1795 4300 c4 -6 11 -8 16 -5 14 9 11 15 -7 15 -8 0 -12 -5 -9 -10z"/>
<path d="M1170 4126 c0 -2 7 -7 16 -10 8 -3 12 -2 9 4 -6 10 -25 14 -25 6z"/>
<path d="M3326 4090 c-15 -5 -16 -9 -7 -14 7 -5 18 -3 24 3 14 14 6 20 -17 11z"/>
<path d="M4307 4094 c-4 -4 -2 -13 5 -21 8 -10 8 -19 -2 -37 -7 -15 -10 -38
-5 -63 11 -66 -13 -170 -47 -209 -17 -19 -34 -31 -39 -28 -12 7 -49 -5 -49
-16 0 -5 9 -12 20 -15 11 -3 25 -16 31 -27 11 -20 9 -21 -25 -15 -37 6 -111
57 -96 67 5 3 5 12 0 20 -14 21 -12 30 5 30 8 0 15 5 15 10 0 6 5 10 11 10 6
0 9 -7 6 -15 -4 -8 -2 -17 2 -19 14 -9 72 18 67 30 -3 7 0 29 7 49 9 31 14 35
34 30 16 -4 23 -1 23 10 0 20 -37 41 -87 49 -34 5 -43 3 -43 -8 0 -9 14 -18
35 -22 30 -5 35 -10 30 -28 -15 -54 -49 -91 -44 -48 3 37 0 41 -26 29 -27 -13
-33 -27 -12 -27 6 -1 1 -7 -13 -14 -31 -18 -36 -14 -44 29 -9 46 -23 44 -45
-7 -17 -39 -17 -45 -3 -60 27 -32 -6 -19 -46 17 -22 19 -42 32 -46 28 -4 -4
-9 3 -13 15 -7 28 -17 28 -41 -3 -23 -28 -38 -95 -24 -104 5 -3 18 -33 30 -66
13 -37 26 -60 35 -59 10 1 14 -12 15 -47 0 -26 5 -83 11 -126 12 -94 14 -170
6 -281 -3 -45 -1 -110 5 -145 20 -114 20 -128 2 -125 -10 2 -20 17 -24 38 -9
44 -28 316 -28 392 0 42 -8 72 -30 120 -16 34 -30 70 -29 78 0 8 11 -7 24 -35
28 -58 32 -35 7 44 -19 59 -50 87 -38 35 6 -27 5 -28 -9 -9 -45 62 -46 63 -31
19 8 -23 21 -56 30 -72 22 -43 21 -45 -19 -39 -36 6 -36 6 -14 -12 28 -23 43
-118 22 -139 -7 -7 -13 -16 -14 -20 -3 -30 -10 -46 -20 -53 -10 -6 -10 -13 -1
-34 16 -35 15 -66 -4 -93 -14 -20 -14 -22 0 -22 18 0 21 -16 6 -25 -18 -11
-10 -24 18 -27 15 -2 -8 -4 -51 -5 -72 -1 -107 -12 -107 -34 0 -5 7 -6 15 -2
9 3 15 2 14 -3 -4 -24 3 -34 25 -34 13 0 33 -3 43 -7 16 -6 15 -8 -7 -13 -23
-6 -22 -8 16 -18 22 -7 49 -22 60 -34 l19 -21 -30 18 c-22 13 -18 7 15 -24 25
-22 49 -39 55 -38 5 2 14 19 19 38 l11 34 3 -50 c5 -81 64 -128 174 -140 65
-6 66 -7 72 -40 4 -19 18 -48 31 -64 14 -16 25 -35 25 -43 0 -8 5 -19 11 -25
7 -7 2 -17 -19 -32 -46 -32 -56 -28 -49 21 6 43 -5 78 -25 78 -7 0 -8 -18 -3
-57 4 -32 8 -70 9 -85 l1 -27 30 27 c17 16 46 35 66 44 31 14 36 14 45 1 8
-13 16 -13 64 2 30 9 67 21 83 27 27 10 36 31 17 43 -6 3 -7 -1 -4 -9 9 -24
-23 -20 -36 4 -8 15 -6 21 11 30 16 9 18 14 9 25 -20 24 -93 55 -105 45 -7 -6
-19 -4 -33 6 -13 9 -22 11 -22 4 0 -22 33 -59 63 -71 23 -8 27 -13 15 -16 -9
-2 -27 2 -40 9 -13 7 -28 13 -35 13 -7 0 -19 9 -27 20 -12 17 -12 22 2 42 13
22 13 25 -3 37 -10 7 -15 18 -11 25 6 9 11 9 21 1 11 -9 15 -5 20 23 9 46 3
90 -13 95 -9 3 -11 -3 -7 -21 5 -20 1 -29 -21 -43 -15 -11 -40 -31 -55 -46
l-29 -26 1 41 c0 26 8 54 22 74 38 55 139 186 184 240 43 51 44 54 37 100 -4
27 -13 66 -21 88 -9 22 -17 72 -19 110 -2 39 -6 93 -9 120 -8 70 4 144 26 166
19 19 20 19 59 -6 48 -30 56 -31 70 -5 6 11 15 20 20 20 21 0 8 -23 -35 -65
l-44 -44 28 -17 c31 -18 61 -76 58 -112 -1 -20 -6 -23 -27 -18 -63 13 -84 16
-70 10 8 -4 42 -20 74 -35 53 -26 60 -27 71 -13 20 27 50 13 51 -24 1 -33 -10
-43 -20 -17 -3 8 -9 15 -14 15 -9 0 -40 -118 -46 -173 -4 -32 -13 -43 -41 -50
-17 -4 -16 -5 4 -6 13 0 48 11 77 26 58 29 50 31 125 -28 57 -45 75 -46 113
-5 l33 36 12 -26 c6 -15 9 -29 7 -32 -3 -2 -1 -13 5 -24 8 -15 13 -17 25 -7
21 17 17 31 -7 24 -18 -6 -19 -5 -7 14 7 12 16 21 20 21 4 0 5 6 2 14 -7 19
16 32 27 15 7 -12 9 -11 10 1 1 8 1 19 0 24 -1 5 5 6 13 3 9 -4 16 3 21 21 3
15 17 38 29 52 26 28 40 60 26 60 -5 0 -14 -8 -20 -17 -9 -15 -11 -14 -7 10 4
27 4 27 -19 12 -13 -8 -24 -12 -24 -8 1 19 19 35 53 47 l35 12 -28 19 c-44 30
-59 65 -81 197 -33 199 -68 271 -137 284 -20 4 -40 11 -43 16 -15 24 -146 36
-193 18 -19 -7 -33 -5 -56 8 -16 9 -30 20 -30 24 0 10 -55 38 -76 38 -11 0
-15 -6 -11 -20 3 -11 1 -20 -4 -20 -4 0 -13 19 -20 43 -22 79 -45 138 -52 131z
m238 -276 c79 -72 182 -228 206 -310 13 -48 -4 -31 -60 59 -59 93 -168 216
-212 239 -15 7 -35 11 -43 8 -25 -9 -19 22 6 40 33 24 41 21 103 -36z m25 31
c0 -6 -4 -7 -10 -4 -5 3 -10 11 -10 16 0 6 5 7 10 4 6 -3 10 -11 10 -16z m198
-30 c18 -6 30 -15 27 -20 -8 -12 -115 -6 -115 7 0 26 35 32 88 13z m-710 -81
c13 -17 42 -373 41 -498 -1 -94 -15 -240 -18 -187 -1 32 -14 35 -34 7 -9 -13
-14 -56 -16 -132 -3 -130 -11 -160 -11 -42 -1 78 -19 280 -39 424 -6 41 -15
120 -20 175 -9 96 -8 101 12 118 l22 17 -24 20 c-21 18 -23 24 -13 53 l10 32
1 -34 c1 -26 4 -32 17 -27 9 3 19 6 24 6 4 0 10 18 14 40 6 41 16 49 34 28z
m235 -63 c3 -16 0 -24 -7 -22 -14 4 -21 47 -8 47 5 0 12 -11 15 -25z m477
-225 c0 -5 -2 -10 -4 -10 -3 0 -8 5 -11 10 -3 6 -1 10 4 10 6 0 11 -4 11 -10z
m15 -50 c3 -6 -4 -10 -17 -10 -18 0 -20 2 -8 10 19 12 18 12 25 0z m8 -41 c5
-9 4 -25 -4 -44 -7 -16 -13 -34 -13 -39 -2 -16 -44 -38 -51 -27 -3 7 3 11 17
12 17 1 18 3 6 6 -24 6 -23 24 2 30 23 6 25 14 8 32 -11 11 -10 13 5 8 20 -7
23 12 5 32 -11 11 -10 13 1 9 8 -2 19 -11 24 -19z m-1050 -366 c-7 -2 -21 -2
-30 0 -10 3 -4 5 12 5 17 0 24 -2 18 -5z m54 -9 c-3 -3 -12 -4 -19 -1 -8 3 -5
6 6 6 11 1 17 -2 13 -5z"/>
<path d="M4080 4054 c-25 -14 -56 -36 -70 -49 -14 -12 -37 -30 -52 -40 -31
-19 -38 -38 -10 -28 15 6 15 5 3 -11 -13 -15 -13 -19 0 -27 36 -23 89 2 89 42
0 10 5 19 11 19 6 0 9 7 5 15 -6 18 15 20 32 3 36 -36 112 1 112 54 0 20 -4
28 -12 25 -51 -21 -51 -21 -43 1 9 29 -8 28 -65 -4z"/>
<path d="M3252 4020 c0 -14 2 -19 5 -12 2 6 2 18 0 25 -3 6 -5 1 -5 -13z"/>
<path d="M3821 3812 c-15 -28 -15 -165 0 -156 8 4 9 25 5 60 -3 29 -1 65 4 80
13 32 6 44 -9 16z"/>
<path d="M3240 3769 c0 -5 5 -7 11 -3 9 5 10 -1 5 -19 -7 -30 18 -69 40 -60 9
3 14 -2 14 -12 0 -9 4 -14 9 -11 16 10 -1 50 -35 84 -34 34 -44 39 -44 21z"/>
<path d="M3750 3666 c0 -19 5 -38 10 -41 6 -4 10 8 10 29 0 19 -4 38 -10 41
-6 4 -10 -8 -10 -29z"/>
<path d="M3730 3491 c0 -6 4 -13 10 -16 6 -3 7 1 4 9 -7 18 -14 21 -14 7z"/>
<path d="M4355 3410 c3 -5 8 -10 11 -10 2 0 4 5 4 10 0 6 -5 10 -11 10 -5 0
-7 -4 -4 -10z"/>
<path d="M4445 3340 c3 -5 13 -10 21 -10 8 0 14 5 14 10 0 6 -9 10 -21 10 -11
0 -17 -4 -14 -10z"/>
<path d="M3696 3214 c-9 -24 -2 -26 12 -4 7 11 8 20 3 20 -5 0 -12 -7 -15 -16z"/>
<path d="M4430 3186 c0 -2 7 -6 15 -10 8 -3 15 -1 15 4 0 6 -7 10 -15 10 -8 0
-15 -2 -15 -4z"/>
<path d="M4980 3160 c0 -5 5 -10 10 -10 6 0 10 5 10 10 0 6 -4 10 -10 10 -5 0
-10 -4 -10 -10z"/>
<path d="M3305 3142 c-27 -9 -53 -21 -57 -26 -18 -26 -26 -78 -16 -107 15 -43
48 -47 94 -12 28 21 33 29 21 31 -9 2 -17 12 -17 23 0 10 -1 22 -1 27 -1 4 8
12 20 18 12 6 21 13 20 15 -1 2 3 14 10 27 10 19 9 22 -6 21 -10 0 -40 -8 -68
-17z"/>
<path d="M4657 3090 c7 -26 38 -52 57 -48 11 2 4 13 -23 35 -31 26 -38 28 -34
13z"/>
<path d="M5102 3071 c-7 -19 -12 -41 -11 -50 0 -9 7 2 15 23 8 22 13 45 11 50
-2 6 -9 -5 -15 -23z"/>
<path d="M4807 3064 c-4 -4 -7 -14 -7 -23 0 -11 3 -12 11 -4 6 6 10 16 7 23
-2 6 -7 8 -11 4z"/>
<path d="M4490 3026 c0 -4 11 -24 25 -44 19 -28 25 -32 25 -17 0 20 -19 58
-20 40 0 -5 -7 -1 -15 9 -8 11 -15 16 -15 12z"/>
<path d="M5006 2948 c8 -29 19 -73 24 -98 12 -54 14 -58 28 -90 6 -14 13 -37
16 -52 5 -19 13 -28 26 -28 24 0 25 8 6 52 -7 18 -22 58 -32 88 -19 60 -72
180 -78 180 -2 0 2 -24 10 -52z"/>
<path d="M4407 2939 c-23 -34 -70 -71 -102 -82 -5 -2 2 -30 16 -63 20 -48 29
-58 46 -56 23 3 63 -43 63 -72 0 -14 -4 -15 -21 -6 -11 7 -24 9 -27 5 -11 -10
19 -23 55 -23 19 0 37 -3 40 -6 4 -3 -1 -6 -9 -6 -11 0 -14 -6 -11 -20 6 -21
36 -35 53 -25 5 3 10 2 10 -4 0 -6 60 -9 168 -8 92 1 196 -1 232 -5 l65 -7
-60 22 c-33 12 -75 32 -94 44 l-34 22 34 20 c43 26 86 35 143 28 24 -3 46 -3
49 0 7 6 -42 83 -53 83 -16 0 -31 -30 -25 -50 6 -19 3 -20 -32 -15 -21 3 -63
7 -93 9 -30 3 -65 7 -77 11 -19 6 -23 4 -23 -14 0 -14 -5 -19 -15 -15 -8 4
-15 12 -15 20 0 7 -9 18 -20 24 -12 6 -20 7 -20 1 0 -5 5 -11 10 -13 7 -2 5
-11 -4 -23 -13 -19 -16 -15 -51 60 -19 43 -41 98 -47 122 -6 24 -15 43 -20 43
-6 0 -7 -8 -3 -17 21 -55 -4 -50 -50 10 -20 26 -39 47 -43 47 -4 -1 -19 -19
-35 -41z m300 -267 c7 -4 9 -13 4 -21 -7 -10 -13 -11 -30 -2 -12 7 -19 16 -16
22 7 11 25 12 42 1z"/>
<path d="M5064 2943 c4 -16 9 -41 12 -57 3 -16 14 -40 24 -54 l20 -25 0 44 c0
30 -8 54 -26 81 -32 45 -38 47 -30 11z"/>
<path d="M3550 2910 c0 -5 5 -10 11 -10 5 0 7 5 4 10 -3 6 -8 10 -11 10 -2 0
-4 -4 -4 -10z"/>
<path d="M4925 2911 c-3 -5 -1 -12 5 -16 5 -3 10 1 10 9 0 18 -6 21 -15 7z"/>
<path d="M3265 2853 c4 -10 8 -26 9 -36 1 -10 10 -25 19 -34 16 -16 18 -16 32
2 20 27 19 30 -16 59 -36 30 -54 34 -44 9z"/>
<path d="M1283 2819 c-4 -13 -11 -18 -21 -14 -8 3 -21 0 -28 -6 -8 -6 -20 -9
-29 -6 -8 4 -17 2 -19 -2 -3 -5 -17 -6 -31 -3 -18 3 -25 0 -25 -11 0 -9 -7
-20 -15 -24 -12 -7 -13 -16 -4 -46 6 -21 18 -41 27 -44 9 -4 20 -10 23 -15 3
-4 23 1 45 11 62 30 117 32 112 4 -2 -12 4 -19 20 -21 27 -4 28 -11 5 -28 -17
-12 -17 -13 0 -20 10 -3 29 -2 41 4 17 7 27 7 35 -1 9 -9 10 -3 5 23 -4 19
-11 36 -16 38 -4 2 -3 13 3 24 9 16 7 23 -10 35 -12 8 -21 20 -21 27 0 8 -7
19 -15 26 -11 9 -13 15 -5 20 9 5 8 13 -1 29 -16 24 -29 28 -29 7 0 -8 -7 -17
-16 -20 -22 -9 -23 -8 -17 14 3 11 2 20 -2 20 -4 0 -9 -9 -12 -21z m112 -119
c3 -5 -3 -10 -14 -10 -12 0 -21 5 -21 10 0 6 6 10 14 10 8 0 18 -4 21 -10z m5
-75 c0 -2 -9 -9 -20 -15 -16 -9 -18 -8 -14 5 5 13 34 22 34 10z"/>
<path d="M1435 2810 c-3 -5 -1 -10 4 -10 6 0 11 5 11 10 0 6 -2 10 -4 10 -3 0
-8 -4 -11 -10z"/>
<path d="M4928 2793 c7 -3 16 -2 19 1 4 3 -2 6 -13 5 -11 0 -14 -3 -6 -6z"/>
<path d="M4270 2745 c0 -9 6 -12 15 -9 8 4 12 10 9 15 -8 14 -24 10 -24 -6z"/>
<path d="M1567 2696 c-4 -10 -1 -13 8 -9 8 3 12 9 9 14 -7 12 -11 11 -17 -5z"/>
<path d="M1420 2680 c0 -5 5 -10 11 -10 5 0 7 5 4 10 -3 6 -8 10 -11 10 -2 0
-4 -4 -4 -10z"/>
<path d="M1570 2646 c0 -17 14 -29 23 -20 8 8 -3 34 -14 34 -5 0 -9 -6 -9 -14z"/>
<path d="M3742 2638 c-21 -21 -13 -27 18 -17 16 6 27 15 24 20 -7 13 -28 11
-42 -3z"/>
<path d="M1189 2632 c-32 -14 -66 -67 -73 -114 -6 -39 -12 -49 -31 -54 -13 -3
-28 -3 -34 0 -5 4 -13 -3 -16 -15 -6 -19 -13 -21 -67 -17 -68 5 -64 8 -71 -79
l-5 -63 44 0 c45 0 53 7 32 28 -9 9 -5 12 19 12 27 0 32 4 35 28 3 25 5 24 31
-25 19 -36 27 -67 27 -101 0 -39 7 -58 35 -98 19 -27 35 -54 35 -60 0 -6 12
-24 26 -40 14 -16 32 -46 41 -67 16 -39 38 -57 72 -57 19 0 19 -2 -6 -92 -13
-51 -30 -104 -36 -117 -14 -29 -37 -39 -37 -17 0 9 -11 22 -25 28 -14 6 -25
15 -25 20 0 4 -11 8 -25 8 -30 0 -31 5 -5 65 11 26 20 50 20 54 0 5 -33 6 -72
4 -53 -3 -69 -2 -58 6 8 6 44 11 80 11 58 1 100 14 100 34 0 3 -68 6 -152 6
l-152 0 75 -69 c90 -83 107 -126 88 -226 -7 -33 -13 -81 -15 -106 -3 -55 -35
-123 -70 -145 -13 -9 -29 -25 -35 -36 -10 -19 -9 -19 22 -3 17 10 43 28 56 42
14 13 23 18 20 11 -2 -7 0 -21 5 -30 6 -13 0 -33 -22 -71 -35 -63 -36 -67 -10
-67 13 0 18 -5 14 -15 -4 -9 -19 -15 -41 -15 -33 0 -34 -1 -28 -29 3 -17 2
-32 -4 -36 -6 -3 -11 -1 -11 4 0 6 -11 11 -25 11 -14 0 -25 5 -25 10 0 6 -9
10 -20 10 -17 0 -18 3 -10 26 15 38 11 43 -7 9 -9 -16 -16 -39 -14 -51 1 -11
-3 -33 -8 -48 -11 -27 -10 -27 11 -12 12 9 28 16 35 16 17 0 17 -30 1 -31 -7
0 -21 -2 -32 -4 -31 -6 -66 13 -66 35 0 11 7 23 15 26 19 8 19 41 0 61 -12 11
-19 12 -29 4 -7 -6 -21 -9 -29 -5 -18 7 -14 -16 29 -145 13 -40 24 -78 24 -85
0 -6 -18 -12 -40 -13 -22 -2 -40 2 -40 7 0 6 -7 10 -15 10 -18 0 -20 16 -2 23
6 3 0 6 -15 6 -33 1 -60 -8 -53 -19 3 -5 14 -6 25 -3 11 3 20 1 20 -5 0 -5
-22 -15 -50 -22 -27 -7 -50 -16 -50 -21 0 -5 -9 -9 -19 -9 -11 0 -23 -5 -26
-10 -4 -6 -17 -3 -34 10 -23 15 -35 18 -60 10 -24 -7 -31 -6 -31 6 0 8 -5 14
-11 14 -5 0 -7 -4 -4 -10 6 -10 -2 -12 -65 -15 -25 -2 -28 0 -19 16 5 10 14
21 19 24 18 11 10 25 -30 50 -41 26 -95 36 -72 13 20 -20 14 -28 -25 -27 -21
0 -68 -3 -106 -7 l-67 -6 0 -54 c0 -29 5 -56 10 -59 6 -3 10 -11 10 -17 0 -6
-10 -3 -22 8 -20 18 -21 18 -15 1 4 -10 7 -22 7 -26 0 -4 17 -17 37 -28 30
-16 64 -22 166 -27 89 -5 127 -4 122 4 -3 5 2 10 14 10 10 0 27 3 36 6 11 5
18 0 22 -15 4 -17 10 -20 27 -15 36 12 88 23 83 17 -8 -7 52 -57 91 -77 18 -9
67 -26 109 -37 42 -10 91 -30 110 -44 18 -15 33 -21 33 -16 0 6 12 11 26 11
14 0 23 4 19 9 -7 13 28 23 49 15 11 -4 23 3 37 20 29 36 53 35 44 -3 -7 -33
-4 -34 107 -46 77 -8 83 -1 85 105 2 123 12 189 31 208 11 11 18 36 19 70 1
30 10 94 19 144 l16 90 30 -62 30 -62 -22 -117 c-12 -64 -29 -127 -37 -139 -8
-13 -12 -26 -9 -30 3 -3 6 0 6 7 0 7 5 9 10 6 6 -4 8 -11 5 -16 -5 -7 -8 -145
-5 -216 0 -17 20 -17 20 0 0 17 65 51 84 44 9 -4 29 7 51 27 20 19 48 37 63
41 34 8 82 59 83 88 0 12 12 47 27 77 23 46 32 55 55 55 15 1 32 6 37 11 7 7
11 73 11 178 -1 91 2 166 7 166 26 -1 45 -45 58 -133 4 -32 3 -47 -5 -47 -7 0
-5 -10 5 -26 20 -30 36 -114 21 -114 -5 0 -7 -13 -4 -29 4 -19 2 -31 -7 -34
-7 -3 -17 -26 -20 -51 -4 -25 -12 -46 -18 -46 -16 0 -1 -90 29 -171 29 -79 59
-109 109 -109 19 0 54 -5 79 -12 39 -11 45 -16 44 -38 -2 -23 -2 -23 -6 -2 -6
30 -19 28 -37 -6 -14 -27 -21 -29 -133 -46 -65 -10 -156 -22 -203 -26 -47 -5
-137 -16 -200 -25 -148 -21 -306 -41 -500 -65 -85 -11 -229 -28 -320 -40 -91
-11 -228 -27 -305 -35 -77 -9 -165 -20 -195 -25 -30 -5 -76 -12 -102 -15 l-48
-6 0 -95 0 -94 623 0 623 0 169 76 c152 69 178 77 274 90 132 17 171 17 194 0
18 -14 18 -14 0 -19 -10 -3 2 -6 27 -7 25 -1 54 -5 65 -9 19 -7 18 -8 -5 -21
-114 -59 -196 -103 -199 -107 -3 -2 43 -3 101 -2 97 1 108 3 128 24 l21 22
-31 13 c-26 11 -33 10 -43 -3 -11 -14 -87 -41 -94 -33 -4 3 50 33 172 95 34
18 51 33 53 49 3 18 -1 22 -25 23 l-28 0 25 10 c14 6 67 9 118 7 77 -2 95 -6
103 -21 7 -11 17 -16 29 -12 10 3 21 2 24 -4 7 -11 48 -2 58 13 6 8 8 8 8 -1
0 -6 -21 -23 -46 -38 -25 -15 -43 -29 -40 -32 3 -3 18 5 35 16 26 19 50 23
151 28 118 6 121 6 127 -15 5 -20 12 -22 83 -22 62 0 82 4 103 20 33 26 51 27
37 1 -13 -26 -13 -31 5 -31 25 0 17 -17 -11 -24 -15 -4 -24 -9 -21 -12 5 -5
79 10 127 26 71 23 67 20 47 31 -13 8 -15 14 -7 30 12 21 56 24 140 10 43 -7
44 -8 20 -19 -25 -11 -25 -11 -3 -17 28 -9 20 -30 -18 -45 -65 -27 -10 -35
115 -16 5 0 14 -16 19 -36 l9 -38 751 1 c465 0 741 4 722 10 -16 5 -109 25
-205 45 -96 20 -177 37 -179 39 -10 10 11 35 29 35 17 0 29 16 55 75 19 41 50
98 70 127 34 49 45 57 148 103 109 48 115 50 202 49 53 -1 82 2 70 7 -11 4
-32 8 -47 8 -28 1 -37 14 -19 26 6 3 5 19 -2 40 -9 24 -24 41 -51 55 l-40 20
32 -33 c40 -41 40 -47 2 -47 -23 0 -31 5 -36 24 -7 27 -111 132 -122 122 -3
-4 15 -49 41 -102 26 -52 47 -96 47 -99 0 -2 -12 3 -27 11 -16 7 -33 14 -40
14 -7 0 -17 9 -23 19 -13 25 -13 34 0 26 6 -3 10 5 10 18 0 14 -7 28 -17 32
-10 3 -19 5 -20 3 -2 -4 -53 71 -53 77 0 3 5 4 11 2 6 -1 14 4 16 11 3 7 -4
12 -17 12 -12 0 -35 9 -52 21 -39 28 -46 17 -21 -29 12 -20 24 -57 28 -82 4
-25 17 -67 30 -95 12 -27 25 -58 29 -68 6 -18 -19 -67 -34 -67 -4 0 -37 -18
-72 -39 -36 -22 -130 -72 -209 -111 -79 -40 -170 -92 -202 -117 -65 -50 -109
-56 -115 -15 -2 12 -8 20 -13 16 -5 -3 -7 -10 -4 -15 4 -5 -2 -9 -12 -9 -47 2
-363 40 -398 48 -22 6 -130 20 -240 32 -424 45 -612 71 -718 99 -60 16 -111
31 -114 34 -13 13 11 25 64 31 32 4 117 27 188 52 72 26 149 48 173 51 44 5
228 -23 247 -37 26 -20 186 -43 290 -42 132 1 169 10 173 41 2 12 10 25 18 28
8 3 14 14 14 24 0 10 5 19 10 19 15 0 12 47 -4 53 -17 7 -26 -1 -26 -24 0 -28
-15 -30 -62 -10 -24 10 -57 16 -73 14 -17 -2 -39 2 -50 11 -26 19 -14 31 15
16 24 -13 85 -6 95 10 3 6 -5 21 -18 34 -16 16 -21 27 -14 30 8 3 6 9 -6 16
-9 6 -15 16 -11 21 9 15 46 0 84 -36 42 -39 71 -55 101 -55 18 0 20 3 11 12
-7 7 -12 19 -12 28 0 24 -34 52 -46 40 -7 -7 -19 -6 -37 2 -20 10 -27 20 -27
43 -1 50 -27 73 -112 94 -42 10 -86 25 -98 34 -19 13 -19 15 -4 21 24 9 3 29
-26 24 -14 -2 -31 -19 -45 -43 -12 -22 -40 -58 -61 -80 -66 -67 -95 -117 -55
-96 15 9 20 7 24 -9 3 -10 -2 -28 -10 -40 -9 -13 -13 -33 -10 -49 3 -16 1 -33
-4 -38 -8 -8 -7 -17 0 -31 15 -27 14 -32 -3 -26 -8 3 -22 17 -31 31 -14 20
-14 27 -4 33 10 7 10 12 1 23 -7 8 -11 25 -10 38 2 18 -2 25 -18 27 -19 3 -21
-2 -20 -33 1 -19 8 -41 14 -47 19 -19 14 -35 -10 -33 -29 2 -48 32 -28 45 21
13 -44 74 -71 67 -25 -7 -89 11 -89 24 0 6 -13 21 -29 35 -16 13 -38 44 -50
69 l-21 44 -33 -22 c-20 -13 -32 -28 -30 -37 2 -8 -3 -32 -12 -52 -17 -42 -38
-51 -106 -46 -47 3 -48 6 -34 63 6 26 6 28 -6 14 -17 -20 -44 -30 -54 -21 -7
7 -12 8 -71 11 -22 1 -34 8 -42 25 -8 18 -16 23 -31 19 -12 -3 -36 4 -56 16
-20 11 -45 21 -57 21 -11 0 -33 9 -49 21 -18 12 -29 16 -29 8 0 -9 -3 -9 -14
1 -17 13 -141 41 -171 38 -17 -2 -33 6 -83 38 -10 7 29 48 65 70 25 14 45 34
47 47 21 100 24 123 28 209 3 58 6 68 23 70 42 6 -152 77 -300 110 -44 10 -59
17 -56 28 1 8 5 40 8 71 5 49 2 64 -23 110 -16 30 -35 58 -41 62 -7 4 -13 15
-13 23 0 18 -31 74 -40 74 -4 0 -16 -9 -29 -21 -22 -21 -36 -19 -36 4 -1 7 -6
11 -12 10 -17 -4 -71 69 -65 87 4 11 1 10 -12 -3 -10 -10 -15 -24 -12 -32 3
-8 1 -17 -4 -20 -15 -9 -12 -71 3 -84 8 -6 17 -8 20 -4 9 8 8 -9 -2 -84 -6
-41 -17 -70 -31 -85 -12 -13 -28 -36 -36 -53 -15 -30 -15 -30 16 5 33 37 40
34 14 -6 -9 -13 -14 -27 -10 -31 3 -4 -1 -17 -9 -30 -17 -25 -8 -31 15 -10 7
6 3 -5 -10 -26 -17 -29 -20 -41 -11 -50 13 -13 15 -37 3 -37 -4 0 -16 14 -27
32 -29 50 -30 15 -1 -48 29 -64 29 -64 17 -64 -5 0 -15 16 -22 35 -13 34 -29
47 -29 23 0 -6 -2 -9 -5 -7 -2 3 4 55 15 117 23 133 30 162 39 162 3 0 7 28 8
62 1 35 3 106 5 158 l5 95 32 15 33 15 -4 82 c-5 86 3 103 25 56 6 -16 17 -34
24 -41 7 -7 13 -16 14 -20 4 -45 10 -67 18 -75 16 -16 13 -25 -9 -32 -11 -3
-20 -11 -20 -18 0 -8 3 -8 11 0 6 6 17 9 23 7 13 -5 39 54 30 68 -6 10 -13 52
-17 99 -2 20 -6 24 -23 21 -11 -2 -27 3 -35 11 -8 7 -24 19 -36 25 -12 7 -27
28 -33 48 -10 30 -15 35 -35 30 -24 -6 -41 7 -31 23 4 5 26 3 53 -5 25 -8 48
-13 49 -11 2 2 1 12 -2 24 -7 27 -30 36 -54 23 -10 -5 -26 -7 -35 -4 -31 12 5
34 55 34 40 0 55 -6 90 -35 23 -19 44 -35 46 -35 2 0 -10 21 -26 46 -16 26
-27 51 -23 57 4 6 -4 8 -19 4 -18 -5 -33 -1 -51 13 -30 24 -37 25 -37 5 0 -8
-9 -15 -20 -15 -25 0 -27 27 -2 34 9 2 35 7 57 11 39 6 41 8 74 86 18 43 37
79 41 79 4 0 21 -15 38 -34 34 -39 42 -37 42 10 0 50 -16 83 -44 90 -14 3 -30
12 -37 20 -15 18 -29 18 -29 -1 0 -8 5 -15 10 -15 18 0 11 -18 -10 -23 -11 -3
-22 -17 -25 -33 -10 -46 -34 -94 -47 -94 -6 0 -29 19 -50 42 -32 35 -38 48
-35 78 3 27 9 36 26 38 11 2 21 8 21 13 0 16 -17 10 -50 -17 -31 -27 -31 -27
-37 -5 -4 14 -11 20 -22 16 -22 -7 -82 31 -88 56 -6 20 -9 21 -34 11z m124
-349 c-19 -7 -16 -21 5 -26 9 -3 0 -5 -20 -6 -21 0 -38 4 -38 9 0 6 6 10 14
10 7 0 19 7 26 15 7 9 16 13 19 9 3 -4 0 -9 -6 -11z m-103 -53 c0 -5 -5 -10
-11 -10 -5 0 -7 5 -4 10 3 6 8 10 11 10 2 0 4 -4 4 -10z m130 -30 c0 -5 -5
-10 -11 -10 -5 0 -7 5 -4 10 3 6 8 10 11 10 2 0 4 -4 4 -10z m6 -35 c-3 -8 4
-21 17 -30 12 -8 17 -15 11 -15 -17 0 -54 31 -54 46 0 8 7 14 16 14 10 0 14
-6 10 -15z m43 -267 c9 -26 -19 -85 -31 -65 -10 15 -10 71 -1 80 12 13 24 7
32 -15z m132 -289 l-9 -34 -1 46 c-1 25 2 49 7 53 12 12 14 -29 3 -65z m-566
-509 c-3 -5 1 -10 9 -10 15 0 21 -21 17 -65 -1 -22 -36 -55 -57 -55 -12 0 -11
5 2 25 9 14 15 27 13 29 -2 3 -22 -4 -44 -14 -22 -10 -51 -21 -65 -24 l-25 -7
24 18 c13 10 39 33 57 51 18 17 37 32 42 32 6 0 12 7 16 15 3 8 8 15 11 15 4
0 3 -4 0 -10z m-175 -181 c0 -5 4 -8 9 -5 5 3 12 -1 15 -10 4 -9 13 -14 21
-10 11 4 19 -3 25 -20 13 -33 13 -34 -5 -28 -11 5 -13 2 -9 -11 7 -18 -10 -35
-37 -35 -20 0 -58 92 -41 98 6 2 8 10 5 18 -3 8 0 14 6 14 6 0 11 -5 11 -11z
m-596 -88 c3 -5 -1 -15 -10 -22 -13 -10 -17 -10 -25 2 -5 8 -9 17 -9 22 0 10
38 9 44 -2z m451 -101 c-3 -5 -10 -10 -16 -10 -5 0 -9 5 -9 10 0 6 7 10 16 10
8 0 12 -4 9 -10z m2725 -31 c8 -5 10 -9 3 -9 -6 0 -18 -3 -26 -6 -10 -3 -20 3
-27 16 -11 20 -10 21 12 15 12 -4 30 -11 38 -16z m-765 -89 c-3 -5 -10 -10
-16 -10 -5 0 -9 5 -9 10 0 6 7 10 16 10 8 0 12 -4 9 -10z m95 -11 c0 -14 -17
-10 -23 5 -4 10 -1 13 9 9 7 -3 14 -9 14 -14z m-525 -110 c10 -15 3 -19 -40
-26 -36 -6 -37 -5 -26 16 12 22 55 29 66 10z m1394 -25 c1 -1 1 -7 -3 -12 -8
-13 -66 -2 -66 14 0 10 9 12 33 7 17 -3 34 -7 36 -9z m-226 -61 c-7 -2 -21 -2
-30 0 -10 3 -4 5 12 5 17 0 24 -2 18 -5z m-438 -233 c-3 -5 -10 -10 -16 -10
-5 0 -9 5 -9 10 0 6 7 10 16 10 8 0 12 -4 9 -10z m345 -24 c0 -8 3 -21 6 -30
5 -13 -1 -16 -31 -16 -30 0 -36 3 -31 16 4 9 1 23 -5 30 -9 11 -5 14 25 14 24
0 36 -5 36 -14z"/>
<path d="M1136 2613 c-6 -14 -5 -15 5 -6 7 7 10 15 7 18 -3 3 -9 -2 -12 -12z"/>
<path d="M1601 2606 c-7 -8 -8 -17 -3 -20 6 -3 12 3 15 14 6 24 4 25 -12 6z"/>
<path d="M3447 2593 c-7 -39 5 -54 15 -18 4 16 4 33 -1 38 -5 5 -11 -4 -14
-20z"/>
<path d="M1300 2600 c0 -5 5 -10 11 -10 5 0 7 5 4 10 -3 6 -8 10 -11 10 -2 0
-4 -4 -4 -10z"/>
<path d="M1570 2581 c0 -5 7 -12 16 -15 14 -5 15 -4 4 9 -14 17 -20 19 -20 6z"/>
<path d="M3813 2565 l-28 -25 77 3 c80 2 101 13 48 24 -17 3 -33 10 -36 14 -9
16 -32 10 -61 -16z"/>
<path d="M5013 2530 c-13 -15 -23 -32 -23 -36 0 -4 -10 -18 -22 -31 -12 -13
-19 -26 -15 -29 6 -7 67 27 67 37 0 12 59 31 80 26 38 -10 23 28 -17 43 -21 8
-40 16 -43 17 -3 1 -15 -11 -27 -27z"/>
<path d="M3912 2513 c-36 -22 -40 -27 -29 -44 6 -10 21 -19 32 -20 11 0 50 -2
88 -5 37 -3 67 -3 67 -1 0 2 -26 24 -58 49 l-59 45 -41 -24z"/>
<path d="M3423 2522 c4 -5 8 -36 8 -69 1 -47 3 -53 11 -33 10 28 1 97 -14 106
-6 4 -8 2 -5 -4z"/>
<path d="M4926 2482 c-2 -4 4 -8 15 -8 10 0 19 4 19 8 0 4 -6 8 -14 8 -8 0
-17 -4 -20 -8z"/>
<path d="M2097 2459 c-4 -15 -11 -20 -21 -16 -12 5 -16 0 -16 -18 0 -14 4 -25
10 -25 5 0 21 -17 34 -37 26 -39 41 -97 50 -193 l5 -55 -19 49 c-10 26 -22 62
-25 80 -15 77 -38 134 -55 139 -15 4 -17 0 -14 -22 3 -14 7 -33 9 -41 3 -8 -4
-5 -14 8 -18 20 -41 30 -41 16 0 -6 32 -65 125 -234 50 -90 80 -181 56 -165
-6 3 -11 18 -11 32 0 32 -39 115 -50 108 -5 -3 -28 31 -51 75 -44 83 -79 127
-79 99 0 -8 5 -42 10 -77 7 -50 15 -70 40 -95 29 -30 52 -72 95 -174 19 -46
35 -48 35 -6 0 44 7 21 14 -45 4 -42 2 -61 -4 -57 -11 7 -7 -23 10 -78 6 -19
6 -26 -1 -21 -8 4 -9 -4 -4 -27 16 -78 15 -81 -9 -29 -14 30 -25 62 -26 71 0
36 -114 309 -134 321 -6 4 -14 8 -18 8 -8 0 23 -90 42 -122 17 -29 11 -32 -10
-5 -11 14 -20 28 -20 32 0 3 -11 21 -24 38 -13 18 -27 42 -31 55 -3 12 -12 22
-20 22 -13 0 -31 -46 -25 -65 1 -5 2 -29 2 -52 0 -24 4 -45 9 -49 5 -3 9 -20
9 -39 0 -31 4 -35 38 -45 20 -7 44 -17 52 -23 28 -22 136 -201 165 -272 26
-66 27 -76 21 -179 -4 -60 -9 -113 -12 -118 -3 -5 -13 -3 -22 5 -32 27 -47 30
-24 5 26 -29 27 -36 7 -74 -8 -16 -15 -44 -15 -62 0 -21 -8 -38 -21 -50 -12
-9 -30 -26 -40 -36 -18 -18 -17 -19 6 -38 29 -23 95 -36 95 -19 0 6 7 11 15
11 10 0 15 -7 13 -17 -2 -13 12 -23 54 -40 126 -51 368 -103 392 -85 22 17 98
33 127 27 16 -4 36 -16 44 -28 12 -17 25 -21 86 -21 82 -1 73 -13 104 129 10
44 24 103 32 130 79 286 187 898 171 971 -2 10 -8 -11 -12 -48 -5 -49 -12 -68
-22 -68 -9 0 -14 -11 -14 -32 0 -72 -55 -364 -100 -538 -46 -172 -78 -276 -79
-257 -2 19 22 161 44 262 48 221 120 644 110 653 -2 3 -6 -1 -9 -9 -2 -8 -9
-29 -15 -48 -6 -19 -11 -44 -11 -56 0 -11 -7 -30 -14 -41 -14 -18 -16 -18 -46
19 -41 48 -61 48 -22 0 42 -55 52 -77 52 -120 0 -51 -12 -68 -37 -55 -12 7
-25 7 -34 1 -11 -7 -9 -9 10 -9 21 0 23 -3 18 -32 -3 -18 -9 -76 -13 -128 -3
-52 -13 -110 -20 -129 -8 -18 -14 -60 -14 -92 0 -46 -4 -61 -19 -71 -10 -8
-24 -33 -30 -56 -15 -53 -31 -55 -24 -2 6 39 -9 56 -20 26 -4 -11 -16 -13 -40
-9 -20 3 -37 1 -41 -6 -9 -13 -63 -15 -71 -1 -13 21 -35 -3 -35 -39 0 -55 -10
-80 -30 -78 -10 1 -21 10 -24 20 -4 17 -11 19 -44 13 -37 -5 -40 -4 -35 14 3
11 9 20 14 20 5 0 6 7 3 15 -4 8 -1 15 5 15 6 0 11 -4 11 -10 0 -5 12 -10 26
-10 16 0 24 5 21 13 -2 6 -10 11 -16 10 -6 -2 -11 2 -11 8 0 6 -9 9 -20 6 -11
-3 -18 -1 -14 4 3 5 0 9 -6 9 -7 0 -9 8 -5 20 5 14 2 20 -9 20 -20 0 -22 56
-3 63 7 3 5 6 -5 6 -10 1 -18 7 -18 14 0 7 -9 30 -20 52 -11 22 -20 42 -20 46
0 4 -5 20 -12 36 -6 15 -10 34 -9 41 1 7 -7 28 -19 47 -12 19 -25 64 -30 102
-12 91 -35 202 -45 211 -4 4 -10 1 -12 -6 -4 -10 -9 -7 -20 7 -8 12 -18 19
-23 16 -5 -3 -12 7 -16 22 -16 75 -30 72 -39 -9 -9 -75 -19 -101 -29 -70 -4
11 -9 29 -11 39 -2 10 -8 30 -13 44 -6 14 -13 51 -16 82 -7 61 -51 347 -64
412 -15 74 -44 107 -55 64z m122 -924 l0 -20 -9 20 c-5 11 -9 29 -9 40 l0 20
9 -20 c5 -11 9 -29 9 -40z"/>
<path d="M3415 2369 c-10 -30 -2 -32 12 -3 6 13 7 24 3 24 -5 0 -12 -9 -15
-21z"/>
<path d="M4795 2379 c-4 -6 -5 -12 -2 -15 2 -3 7 2 10 11 7 17 1 20 -8 4z"/>
<path d="M4745 2343 c-17 -14 -45 -37 -62 -50 -32 -24 -47 -52 -20 -37 9 5 9
4 0 -6 -6 -7 -9 -19 -6 -27 4 -10 0 -13 -12 -11 -10 2 -20 -3 -23 -11 -3 -10
0 -12 12 -8 14 5 16 3 11 -12 -4 -14 0 -21 12 -24 17 -4 17 -5 1 -6 -10 0 -18
-6 -18 -12 0 -6 16 -9 38 -8 42 3 82 -8 82 -22 0 -5 11 -9 25 -9 14 0 25 3 25
8 0 4 23 7 51 8 56 1 85 18 50 29 -12 4 -27 2 -34 -3 -7 -5 -21 -6 -32 -2 -11
4 -26 5 -32 3 -7 -3 -13 0 -13 7 0 9 -13 10 -45 6 -42 -7 -62 4 -32 18 6 3 2
3 -10 0 -13 -3 -30 -1 -39 4 -13 8 -4 20 55 71 77 66 82 81 10 29 -24 -18 -38
-25 -31 -16 7 9 11 22 10 29 -2 7 4 14 12 14 8 1 14 7 12 14 -2 8 3 11 12 8 9
-4 17 2 21 14 10 30 2 31 -30 2z"/>
<path d="M1500 2322 c0 -21 20 -34 37 -24 7 4 1 14 -13 25 -23 17 -24 17 -24
-1z"/>
<path d="M1675 2286 c0 -28 -4 -64 -8 -81 l-8 -30 16 28 c23 39 31 122 14 129
-11 4 -14 -7 -14 -46z"/>
<path d="M4053 2313 c9 -2 25 -2 35 0 9 3 1 5 -18 5 -19 0 -27 -2 -17 -5z"/>
<path d="M3347 2269 c-10 -6 -27 -9 -38 -6 -22 6 -26 -11 -5 -19 13 -5 76 21
76 31 0 8 -14 5 -33 -6z"/>
<path d="M1760 2264 c0 -13 21 -44 30 -44 6 0 10 11 10 25 0 18 -5 25 -20 25
-11 0 -20 -3 -20 -6z"/>
<path d="M1950 2200 c1 -16 27 -56 34 -49 2 2 -5 18 -15 34 -11 17 -19 23 -19
15z"/>
<path d="M3147 2147 c-4 -10 -6 -44 -6 -75 l1 -57 9 55 c6 30 8 64 7 75 -3 19
-4 19 -11 2z"/>
<path d="M4600 2132 c0 -5 7 -13 16 -16 10 -4 14 -1 12 6 -5 15 -28 23 -28 10z"/>
<path d="M3222 2100 c0 -19 2 -27 5 -17 2 9 2 25 0 35 -3 9 -5 1 -5 -18z"/>
<path d="M5015 2100 c-18 -7 -18 -8 7 -15 31 -8 58 -1 58 15 0 12 -36 12 -65
0z"/>
<path d="M4870 2060 c0 -5 12 -10 28 -10 21 0 24 2 12 10 -20 13 -40 13 -40 0z"/>
<path d="M2760 2058 c0 -8 70 -78 79 -78 5 0 16 -21 26 -47 21 -57 44 -98 79
-138 14 -17 26 -36 26 -42 0 -7 5 -13 10 -13 11 0 13 20 4 44 -3 9 -10 13 -15
10 -5 -3 -9 1 -9 9 0 8 -16 44 -35 81 -19 37 -35 74 -35 81 0 8 -21 26 -47 41
-27 15 -56 34 -65 42 -10 8 -18 13 -18 10z"/>
<path d="M2940 1931 c0 -5 5 -13 10 -16 6 -3 10 -2 10 4 0 5 -4 13 -10 16 -5
3 -10 2 -10 -4z"/>
<path d="M195 1827 c-4 -10 -5 -21 -1 -24 10 -10 18 4 13 24 -4 17 -4 17 -12
0z"/>
<path d="M1850 1814 c0 -63 153 -296 182 -278 5 4 -2 19 -17 34 -15 16 -24 33
-21 39 4 6 2 11 -3 11 -6 0 -11 5 -11 10 0 21 25 8 78 -42 61 -58 75 -53 41
14 -28 56 -118 178 -131 178 -6 0 -5 -6 2 -15 10 -13 9 -15 -9 -15 -11 0 -21
3 -21 8 0 4 -9 13 -21 20 -12 8 -18 9 -14 3 13 -23 -14 -10 -34 15 -12 15 -21
23 -21 18z m94 -130 c17 -7 22 -34 6 -34 -5 0 -14 9 -20 20 -12 22 -10 23 14
14z"/>
<path d="M1520 1801 c0 -5 5 -13 10 -16 6 -3 10 -2 10 4 0 5 -4 13 -10 16 -5
3 -10 2 -10 -4z"/>
<path d="M2550 1723 c0 -4 5 -15 10 -23 8 -13 10 -13 10 2 0 9 -4 20 -10 23
-5 3 -10 3 -10 -2z"/>
<path d="M2560 1670 c0 -5 5 -10 10 -10 6 0 10 5 10 10 0 6 -4 10 -10 10 -5 0
-10 -4 -10 -10z"/>
<path d="M1860 1610 c0 -11 7 -20 15 -20 17 0 18 2 9 24 -9 23 -24 20 -24 -4z"/>
<path d="M1900 1495 c0 -8 -3 -14 -7 -14 -27 4 -31 -3 -13 -21 11 -11 36 -23
55 -26 l36 -5 -23 23 c-16 17 -27 21 -36 14 -10 -7 -12 -4 -7 17 4 15 4 27 1
27 -3 0 -6 -7 -6 -15z"/>
<path d="M836 1445 c-11 -8 -30 -15 -42 -15 -13 0 -25 -4 -28 -8 -3 -5 0 -9 7
-9 7 0 25 -3 40 -7 22 -5 27 -3 27 12 0 10 5 23 12 30 16 16 7 15 -16 -3z"/>
<path d="M963 1416 c-15 -13 -25 -27 -22 -30 3 -3 18 8 34 24 35 36 27 40 -12
6z"/>
<path d="M850 1392 c0 -5 7 -13 16 -16 10 -4 14 -1 12 6 -5 15 -28 23 -28 10z"/>
<path d="M898 1343 c-9 -24 -20 -33 -46 -38 -52 -10 -83 -27 -78 -42 3 -8 -7
-21 -25 -32 -25 -15 -27 -20 -13 -25 9 -4 18 -5 19 -4 53 82 70 93 109 72 16
-8 36 -14 45 -14 13 1 13 3 -3 15 -19 14 -19 16 -2 51 9 20 14 39 11 42 -3 3
-11 -8 -17 -25z"/>
<path d="M2601 1294 c0 -11 3 -14 6 -6 3 7 2 16 -1 19 -3 4 -6 -2 -5 -13z"/>
<path d="M2610 1250 c19 -13 30 -13 30 0 0 6 -10 10 -22 10 -19 0 -20 -2 -8
-10z"/>
<path d="M3675 1092 c-45 -201 -64 -317 -53 -321 22 -8 48 -42 48 -61 0 -11
11 -39 25 -61 14 -22 30 -50 35 -63 8 -21 14 -23 67 -21 78 3 77 3 64 19 -9
11 -4 20 28 45 44 35 75 35 107 0 14 -15 14 -21 4 -34 -7 -8 -16 -12 -21 -9
-5 3 -9 1 -9 -4 0 -6 -20 -9 -45 -9 -77 3 -33 -12 54 -18 46 -3 87 -8 92 -10
16 -11 223 -25 246 -17 7 2 9 16 6 37 -6 36 6 50 37 40 19 -6 19 -8 5 -36 -21
-41 -20 -44 22 -46 21 -1 53 -3 71 -6 17 -2 32 -1 32 3 0 4 -13 31 -30 61 -16
30 -30 62 -30 72 0 9 -7 17 -15 17 -8 0 -24 18 -35 40 -12 23 -34 49 -50 59
-27 16 -28 18 -13 34 16 16 15 17 -24 17 -56 0 -110 -24 -116 -52 -3 -13 -3
11 0 53 5 73 5 76 -18 82 -13 3 -28 2 -33 -2 -24 -18 -70 -21 -115 -7 -25 8
-76 17 -113 21 -73 7 -91 24 -62 56 14 15 14 19 3 19 -10 1 -9 4 4 14 22 17
22 23 -8 62 -14 18 -25 38 -25 44 0 8 -13 10 -40 5 -43 -7 -46 -4 -41 56 1 14
-4 31 -12 37 -11 9 -18 -12 -42 -116z m613 -436 c3 -12 -1 -17 -10 -14 -7 3
-15 13 -16 22 -3 12 1 17 10 14 7 -3 15 -13 16 -22z"/>
<path d="M161 1174 c0 -11 3 -14 6 -6 3 7 2 16 -1 19 -3 4 -6 -2 -5 -13z"/>
<path d="M58 1153 c-38 -6 -35 -20 4 -25 40 -6 118 2 118 12 0 17 -57 23 -122
13z"/>
<path d="M3240 1095 c0 -3 12 -22 27 -40 15 -19 28 -42 28 -50 0 -31 89 -142
123 -155 19 -6 35 -10 38 -8 7 8 -145 203 -180 231 -20 15 -36 25 -36 22z"/>
<path d="M64 1038 c-10 -16 8 -28 44 -28 50 0 84 10 79 24 -4 13 -115 17 -123
4z"/>
<path d="M1815 1040 c-3 -5 -1 -10 4 -10 6 0 11 5 11 10 0 6 -2 10 -4 10 -3 0
-8 -4 -11 -10z"/>
<path d="M1293 913 c-28 -39 -35 -53 -29 -53 9 0 59 70 53 76 -2 3 -14 -7 -24
-23z"/>
<path d="M4345 819 c-10 -15 3 -25 16 -12 7 7 7 13 1 17 -6 3 -14 1 -17 -5z"/>
<path d="M2640 783 c0 -5 16 -9 35 -10 19 -1 35 3 35 8 0 5 -16 9 -35 9 -19 0
-35 -3 -35 -7z"/>
<path d="M2900 729 c0 -3 7 -12 15 -19 15 -12 59 -4 50 10 -6 10 -65 19 -65 9z"/>
<path d="M4420 723 c0 -14 55 -123 62 -123 10 0 10 1 -7 49 -9 26 -10 41 -4
41 21 0 2 24 -24 31 -15 4 -27 5 -27 2z"/>
<path d="M1250 712 c0 -12 39 -82 46 -82 4 0 -34 80 -42 89 -2 2 -4 -1 -4 -7z"/>
<path d="M2585 669 c-4 -6 -4 -13 -1 -16 7 -7 66 -6 73 1 11 11 -10 26 -37 26
-16 0 -32 -5 -35 -11z"/>
<path d="M5034 555 c-10 -8 -14 -15 -8 -15 5 0 19 7 30 15 10 8 14 15 8 15 -5
0 -19 -7 -30 -15z"/>
<path d="M4961 501 c-7 -5 -11 -15 -9 -22 3 -10 8 -7 17 9 13 24 12 26 -8 13z"/>
<path d="M0 457 c0 -34 1 -34 67 -51 36 -9 67 -15 69 -13 1 1 -29 24 -67 50
l-69 47 0 -33z"/>
<path d="M3037 142 c-14 -3 -16 -7 -6 -18 13 -16 55 -19 64 -5 10 17 -24 31
-58 23z"/>
<path d="M2452 102 c-13 -4 -23 -11 -22 -17 2 -12 -31 -24 -48 -18 -8 4 -10 0
-6 -12 6 -16 1 -17 -56 -10 -42 5 -61 4 -56 -3 3 -6 -4 -13 -16 -17 -13 -4
-31 -9 -40 -11 -13 -4 -18 0 -18 16 l0 20 -42 -22 -43 -23 90 -3 c57 -2 98 2
112 9 13 7 26 10 29 6 3 -3 31 8 62 24 61 31 86 37 79 17 -2 -7 -11 -12 -20
-12 -9 1 -18 -4 -20 -11 -8 -19 39 -6 60 17 15 16 15 21 3 28 -10 7 -11 10 -2
10 6 0 12 5 12 10 0 11 -22 12 -58 2z"/>
<path d="M2220 70 c-9 -6 -10 -10 -3 -10 6 0 15 5 18 10 8 12 4 12 -15 0z"/>
<path d="M2755 70 c-3 -5 -1 -10 4 -10 6 0 11 5 11 10 0 6 -2 10 -4 10 -3 0
-8 -4 -11 -10z"/>
<path d="M2718 63 c7 -3 16 -2 19 1 4 3 -2 6 -13 5 -11 0 -14 -3 -6 -6z"/>
<path d="M1553 26 c-4 -8 -19 -16 -33 -19 -14 -2 -2 -5 27 -6 72 -2 92 7 57
25 -33 18 -41 17 -51 0z"/>
<path d="M1308 3 c6 -2 18 -2 25 0 6 3 1 5 -13 5 -14 0 -19 -2 -12 -5z"/>
<path d="M1388 3 c7 -3 16 -2 19 1 4 3 -2 6 -13 5 -11 0 -14 -3 -6 -6z"/>
</g>
</svg>
